HIERARCHY
ROOT Hips
{
	OFFSET 0.000000 0.000000 0.000000
	CHANNELS 6 Xposition Yposition Zposition Xrotation Yrotation Zrotation
	JOINT Spine
	{
		OFFSET 0.000000 0.053497 0.080245
		CHANNELS 3 Xrotation Yrotation Zrotation
		JOINT Spine1
		{
			OFFSET 0.000000 0.018579 0.105368
			CHANNELS 3 Xrotation Yrotation Zrotation
			JOINT Spine2
			{
				OFFSET 0.000000 0.009325 0.106586
				CHANNELS 3 Xrotation Yrotation Zrotation
				JOINT Spine3
				{
					OFFSET 0.000000 0.000000 0.106993
					CHANNELS 3 Xrotation Yrotation Zrotation
					JOINT Neck
					{
						OFFSET 0.000000 -0.040122 0.280858
						CHANNELS 3 Xrotation Yrotation Zrotation
						JOINT Head
						{
							OFFSET 0.000000 -0.025546 0.144881
							CHANNELS 3 Xrotation Yrotation Zrotation
							End Site
							{
								OFFSET 0.000000 0.000000 0.000000
							}
						}
					}
					JOINT RightShoulder
					{
						OFFSET -0.032541 -0.054234 0.175720
						CHANNELS 3 Xrotation Yrotation Zrotation
						JOINT RightArm
						{
							OFFSET -0.161619 0.000000 0.000000
							CHANNELS 3 Xrotation Yrotation Zrotation
							JOINT RightForeArm
							{
								OFFSET -0.257104 0.000000 0.000000
								CHANNELS 3 Xrotation Yrotation Zrotation
								JOINT RightHand
								{
									OFFSET -0.273485 0.000000 0.000000
									CHANNELS 3 Xrotation Yrotation Zrotation
									JOINT RightHandEnd
									{
										OFFSET -0.070844 0.000000 0.000000
										CHANNELS 3 Xrotation Yrotation Zrotation
										End Site
										{
											OFFSET 0.000000 0.000000 0.000000
										}
									}
									JOINT RightHandThumb1
									{
										OFFSET -0.028338 -0.047230 -0.018892
										CHANNELS 3 Xrotation Yrotation Zrotation
										End Site
										{
											OFFSET 0.000000 0.000000 0.000000
										}
									}
								}
							}
						}
					}
					JOINT LeftShoulder
					{
						OFFSET 0.032541 -0.054234 0.175720
						CHANNELS 3 Xrotation Yrotation Zrotation
						JOINT LeftArm
						{
							OFFSET 0.161619 0.000000 0.000000
							CHANNELS 3 Xrotation Yrotation Zrotation
							JOINT LeftForeArm
							{
								OFFSET 0.257104 0.000000 0.000000
								CHANNELS 3 Xrotation Yrotation Zrotation
								JOINT LeftHand
								{
									OFFSET 0.273485 0.000000 0.000000
									CHANNELS 3 Xrotation Yrotation Zrotation
									JOINT LeftHandEnd
									{
										OFFSET 0.070844 0.000000 0.000000
										CHANNELS 3 Xrotation Yrotation Zrotation
										End Site
										{
											OFFSET 0.000000 0.000000 0.000000
										}
									}
									JOINT LeftHandThumb1
									{
										OFFSET 0.028338 -0.047230 -0.018892
										CHANNELS 3 Xrotation Yrotation Zrotation
										End Site
										{
											OFFSET 0.000000 0.000000 0.000000
										}
									}
								}
							}
						}
					}
				}
			}
		}
	}
	JOINT RightUpLeg
	{
		OFFSET -0.096537 0.000000 -0.028202
		CHANNELS 3 Xrotation Yrotation Zrotation
		JOINT RightLeg
		{
			OFFSET 0.000000 0.000000 -0.431842
			CHANNELS 3 Xrotation Yrotation Zrotation
			JOINT RightFoot
			{
				OFFSET 0.000000 0.000000 -0.456398
				CHANNELS 3 Xrotation Yrotation Zrotation
				JOINT RightToeBase
				{
					OFFSET 0.000000 -0.128905 -0.046918
					CHANNELS 3 Xrotation Yrotation Zrotation
					End Site
					{
						OFFSET 0.000000 0.000000 0.000000
					}
				}
			}
		}
	}
	JOINT LeftUpLeg
	{
		OFFSET 0.096537 0.000000 -0.028202
		CHANNELS 3 Xrotation Yrotation Zrotation
		JOINT LeftLeg
		{
			OFFSET 0.000000 0.000000 -0.431842
			CHANNELS 3 Xrotation Yrotation Zrotation
			JOINT LeftFoot
			{
				OFFSET 0.000000 0.000000 -0.456398
				CHANNELS 3 Xrotation Yrotation Zrotation
				JOINT LeftToeBase
				{
					OFFSET 0.000000 -0.128905 -0.046918
					CHANNELS 3 Xrotation Yrotation Zrotation
					End Site
					{
						OFFSET 0.000000 0.000000 0.000000
					}
				}
			}
		}
	}
}
MOTION
Frames: 7
Frame Time: 0.033333
0.370693 2.488103 0.964466 0.976600 -0.435000 3.228400 -0.450800 0.956300 0.397100 -0.409300 -0.330200 -0.020400 1.411300 -1.733200 0.668900 0.124900 -1.071200 1.220600 1.063300 -3.626100 6.243700 0.529700 1.674000 10.738300 -10.124800 9.800400 5.402300 -19.369600 -5.045500 -23.488600 0.000000 0.000000 18.864000 -0.045600 9.620600 -2.649200 0.000000 0.000000 0.000000 0.000000 0.000000 0.000000 -12.959000 -5.583000 -5.334400 1.203300 7.978900 11.381400 0.000000 0.000000 -9.866900 -17.536300 -3.991300 5.258500 0.000000 0.000000 0.000000 0.000000 0.000000 0.000000 0.478200 1.491700 -28.938300 5.321900 0.000000 0.000000 -5.377100 -1.148600 -0.581400 -3.823300 0.000000 0.000000 -0.948800 -2.414400 20.368800 4.667800 0.000000 0.000000 -5.236000 17.902600 0.855000 9.378800 0.000000 0.000000 
0.370721 2.487694 0.964456 0.977200 -0.444500 3.189000 -0.443900 0.960800 0.393500 -0.409900 -0.324600 -0.021200 1.432700 -1.736700 0.634600 0.125600 -1.066800 1.213900 1.011000 -3.586500 6.220600 0.579900 1.589900 10.713600 -10.137900 9.805100 5.410200 -19.172700 -5.166300 -23.435000 0.000000 0.000000 18.857100 -0.010800 9.573500 -2.612700 0.000000 0.000000 0.000000 0.000000 0.000000 0.000000 -12.986200 -5.607600 -5.334900 1.193400 8.020200 11.343300 0.000000 0.000000 -9.952600 -17.577600 -4.178400 5.600300 0.000000 0.000000 0.000000 0.000000 0.000000 0.000000 0.477400 1.512600 -28.885700 5.368300 0.000000 0.000000 -5.412000 -1.146500 -0.595300 -3.819500 0.000000 0.000000 -0.939900 -2.410200 20.359500 4.713500 0.000000 0.000000 -5.301500 17.888000 0.908900 9.331200 0.000000 0.000000 
0.370731 2.486980 0.964425 0.986600 -0.454600 3.130700 -0.447400 0.964700 0.389000 -0.417300 -0.315600 -0.022400 1.469100 -1.749900 0.595800 0.132900 -1.059300 1.202800 0.976300 -3.531700 6.174100 0.604100 1.538500 10.633400 -10.144400 9.793800 5.424800 -19.023300 -5.266200 -23.382900 0.000000 0.000000 18.852900 -0.020600 9.462400 -2.487400 0.000000 0.000000 0.000000 0.000000 0.000000 0.000000 -12.977600 -5.621700 -5.326300 1.004800 8.050800 11.287600 0.000000 0.000000 -10.027100 -17.713600 -4.322600 5.812100 0.000000 0.000000 0.000000 0.000000 0.000000 0.000000 0.489800 1.532900 -28.857200 5.405400 0.000000 0.000000 -5.452000 -1.156400 -0.562000 -3.834700 0.000000 0.000000 -0.911300 -2.406800 20.347100 4.750600 0.000000 0.000000 -5.389000 17.897800 0.977900 9.240800 0.000000 0.000000 
0.370672 2.486127 0.964377 1.002900 -0.456900 3.076000 -0.468100 0.967700 0.388700 -0.434600 -0.312300 -0.024400 1.515200 -1.772800 0.573100 0.145700 -1.053500 1.200800 0.979700 -3.462400 6.108600 0.594900 1.527300 10.520300 -10.136600 9.747300 5.427500 -19.027600 -5.254200 -23.348600 0.000000 0.000000 18.852400 -0.100800 9.336900 -2.303900 0.000000 0.000000 0.000000 0.000000 0.000000 0.000000 -12.935100 -5.588300 -5.289800 0.545700 8.026200 11.207600 0.000000 0.000000 -10.031500 -18.107300 -4.300300 5.645300 0.000000 0.000000 0.000000 0.000000 0.000000 0.000000 0.517000 1.533800 -28.817900 5.412800 0.000000 0.000000 -5.487200 -1.182400 -0.540600 -3.878000 0.000000 0.000000 -0.853000 -2.409000 20.386100 4.731500 0.000000 0.000000 -5.433100 17.945800 0.991600 9.227300 0.000000 0.000000 
0.370558 2.485255 0.964331 1.015700 -0.465600 3.031500 -0.495300 0.976600 0.393400 -0.456200 -0.313300 -0.024700 1.564700 -1.793100 0.572700 0.159500 -1.046000 1.203100 1.010700 -3.391300 6.036500 0.590200 1.514900 10.399500 -10.131300 9.668400 5.415200 -19.041300 -5.195700 -23.307200 0.000000 0.000000 18.851100 -0.191300 9.234500 -2.174100 0.000000 0.000000 0.000000 0.000000 0.000000 0.000000 -12.912400 -5.499700 -5.239200 0.013300 7.951800 11.080400 0.000000 0.000000 -10.000800 -18.670600 -4.230900 5.334100 0.000000 0.000000 0.000000 0.000000 0.000000 0.000000 0.549300 1.534000 -28.722800 5.419500 0.000000 0.000000 -5.533000 -1.205400 -0.588700 -3.904200 0.000000 0.000000 -0.783200 -2.403900 20.468700 4.690200 0.000000 0.000000 -5.428300 17.992800 0.969500 9.315500 0.000000 0.000000 
0.370373 2.484420 0.964308 1.020300 -0.482300 3.009500 -0.512000 0.991200 0.395900 -0.471700 -0.318300 -0.025500 1.607100 -1.795500 0.574200 0.171600 -1.030800 1.194600 1.056100 -3.350200 5.965500 0.599800 1.496700 10.273400 -10.131900 9.589000 5.396400 -18.938300 -5.221600 -23.237000 0.000000 0.000000 18.840300 -0.213100 9.114600 -2.157600 0.000000 0.000000 0.000000 0.000000 0.000000 0.000000 -12.908000 -5.412800 -5.238900 -0.324200 7.912900 10.939400 0.000000 0.000000 -10.029000 -19.037700 -4.334600 5.221300 0.000000 0.000000 0.000000 0.000000 0.000000 0.000000 0.598800 1.534600 -28.719100 5.411500 0.000000 0.000000 -5.579400 -1.205300 -0.574200 -3.878100 0.000000 0.000000 -0.761700 -2.406600 20.470800 4.743000 0.000000 0.000000 -5.470600 18.001200 1.023200 9.381300 0.000000 0.000000 
0.370055 2.483660 0.964283 1.013400 -0.487100 3.035800 -0.504300 0.996900 0.389200 -0.471400 -0.314700 -0.026900 1.629300 -1.793500 0.548300 0.181000 -1.013200 1.174200 1.112500 -3.341500 5.893500 0.581600 1.501400 10.142800 -10.120500 9.544100 5.377500 -18.812300 -5.347300 -23.159300 0.000000 0.000000 18.815700 -0.156100 8.906600 -2.192900 0.000000 0.000000 0.000000 0.000000 0.000000 0.000000 -12.861400 -5.371600 -5.346900 -0.413900 7.963800 10.865800 0.000000 0.000000 -10.141400 -18.994800 -4.540500 5.266100 0.000000 0.000000 0.000000 0.000000 0.000000 0.000000 0.697600 1.506600 -29.032500 5.335400 0.000000 0.000000 -5.597100 -1.191700 -0.294000 -3.836200 0.000000 0.000000 -0.816200 -2.451000 20.306100 4.944300 0.000000 0.000000 -5.624300 17.979500 1.193200 9.354000 0.000000 0.000000 
